<?xml version="1.0" standalone="no"?>
<!DOCTYPE svg PUBLIC "-//W3C//DTD SVG 20010904//EN"
 "http://www.w3.org/TR/2001/REC-SVG-20010904/DTD/svg10.dtd">
<svg version="1.0" xmlns="http://www.w3.org/2000/svg"
 width="450.000000pt" height="450.000000pt" viewBox="0 0 450.000000 450.000000"
 preserveAspectRatio="xMidYMid meet">
<metadata>
Created by potrace 1.11, written by Peter Selinger 2001-2013
</metadata>
<g transform="translate(0.000000,450.000000) scale(0.100000,-0.100000)"
fill="#000000" stroke="none">
<path d="M320 4478 c-158 -50 -275 -178 -309 -336 -8 -39 -11 -562 -10 -1910
1 -1825 1 -1858 20 -1916 54 -159 187 -278 344 -307 31 -6 770 -8 1915 -7
1776 3 1867 4 1915 21 117 43 225 146 275 264 l25 58 2 1885 c2 1571 1 1893
-11 1930 -45 150 -131 247 -276 311 l-55 24 -1885 2 c-1878 2 -1885 2 -1950
-19z"/>
</g>
</svg>
